<?xml version="1.0"?>
<svg xmlns="http://www.w3.org/2000/svg" viewBox="0 0 512 512">
    <path fill="#2DA442" d="m451.7 99.72-71.4-71.44c-15.6-15.55-46.3-28.28-68.3-28.28h-240c-22 0-40 18-40 40v432c0 22 18 40 40 40h368c22 0 40-18 40-40v-304c0-22-12.7-52.7-28.3-68.28z" id="svg_1"/>
    <path fill="#fff" d="m448 472c0 4.3-3.7 8-8 8h-368c-4.34 0-8-3.7-8-8v-432c0-4.34 3.66-8 8-8h240c2.4 0 5.1.30 8 .85v127.2h127.1c.6 2.9.9 5.6.9 8v304z" id="svg_2"/>
    <path fill="#2DA442" d="M342.82130897746026,174.27078489644913 c-7.701355178613843,0 -15.245539843378426,-0.05343678435659529 -22.52777365172757,-0.16031035306978592 c-7.282233808349145,-0.10687356871319056 -14.512077445415201,-0.32062070613957194 -21.584750568631996,-0.5878046279225478 l-1.3097542820771844,10.099552243396504 l15.245539843378426,4.4886898859540025 c4.034043188797727,1.1221724714885006 6.077259868838135,3.0993334926825256 6.077259868838135,5.984919847938669 c0,1.01529890277531 -0.10478034256617487,1.977161021194025 -0.36673119898161205,2.9924599239693346 c-0.26195085641543714,1.01529890277531 -0.7858525692463104,2.2443449429770013 -1.6764854810587964,3.740574904961669 c-0.8382427405293978,1.4962299619846677 -2.095606851323495,3.3130806301089066 -3.667311989816116,5.4505520043727165 c-1.5717051384926217,2.1374713742638107 -3.667311989816116,4.755873807736979 -6.234430382687397,7.8552073004195035 l-47.41310501119407,56.642991417990984 l-24.256649304069455,-52.848979728672724 c-4.4007743877793395,-9.511747615473958 -6.653551752952096,-16.298219228761557 -6.653551752952096,-20.412851624219396 c0,-4.862747376450169 2.98623976313598,-8.12239122220248 9.011109460691028,-9.778931537256934 l15.821831727492386,-4.7024370233803845 l0.9430230830955727,-9.565184399830551 c-10.268473571485124,0.2671839217829766 -20.170215943988637,0.42749427485276287 -29.600446774944363,0.5878046279225478 c-9.430230830955727,0.10687356871319056 -18.912851833194537,0.16031035306978592 -28.50025317799953,0.16031035306978592 c-10.635204770466736,0 -20.641727485536425,-0.05343678435659529 -29.967177973925978,-0.16031035306978592 c-9.325450488389553,-0.10687356871319056 -18.126999263948232,-0.32062070613957194 -26.45703649795912,-0.5878046279225478 l-1.4669247959264464,9.565184399830551 l17.288756523418833,5.0764945138765505 c2.20038719388967,0.6412414122791439 4.086433360080815,1.4962299619846677 5.710528669856523,2.5115288647599776 c1.5717051384926217,1.0687356871319054 3.0386299344190677,2.3512185116901922 4.295994045213164,3.8474484736748593 c1.3097542820771844,1.4962299619846677 2.462338050305106,3.259643845752311 3.510141475966854,5.236804866946337 c1.0478034256617477,1.977161021194025 2.095606851323495,4.2749427485276215 3.1958004482683298,6.786471613287598 l46.312911414249236,101.42301670881783 L138.97115251496734,401.1099344901961 c-4.295994045213164,5.129931298233146 -8.38242740529398,9.351437262404172 -12.206909908959357,12.771391461226267 c-3.8768726749484643,3.366517414465502 -8.277647062727805,5.824609494868884 -13.307103505904193,7.320839456853551 L93.75843469766298,426.9733381187882 l-0.9430230830955727,9.565184399830551 c13.621444533602716,-0.374057490496167 27.13810872463926,-0.5878046279225478 40.60238274439271,-0.5878046279225478 c15.193149672095338,0 29.8623976313598,0.16031035306978592 44.11252422035956,0.5878046279225478 l1.4669247959264464,-9.939241890326722 l-14.14534624643359,-4.328379532884217 c-4.662725244194776,-1.3893563932714774 -6.967892780650621,-3.580264551891884 -6.967892780650621,-6.572724475861219 c0,-1.01529890277531 0.15717051384926228,-2.03059780555062 0.4715115415477863,-3.0993334926825256 c0.3143410276985248,-1.0687356871319054 0.9430230830955727,-2.3512185116901922 1.8336559949080589,-3.8474484736748593 c0.890632911812485,-1.4962299619846677 2.095606851323495,-3.259643845752311 3.562531647249941,-5.236804866946337 c1.4669247959264464,-1.977161021194025 3.405361133400679,-4.435253101597408 5.867699183705786,-7.320839456853551 l57.681578582679194,-68.98688860436448 l29.600446774944363,64.87225620890666 c4.4007743877793395,9.618621184187148 6.653551752952096,16.24478244440496 6.653551752952096,19.878483780653443 c0,5.397115220016122 -2.6195085641543687,8.81706941883822 -7.910915863746193,10.313299380822887 l-16.55529412545561,4.7024370233803845 l-1.1001935969448344,9.565184399830551 c22.422993309161395,-0.374057490496167 43.22189130854708,-0.5878046279225478 62.29191365559088,-0.5878046279225478 c18.49373046292984,0 35.93965750019794,0.16031035306978592 52.39017128308737,0.5878046279225478 l1.4669247959264464,-9.565184399830551 l-17.445927037268095,-5.0764945138765505 c-2.462338050305106,-0.7481149809923333 -4.505554730345514,-1.6565403150544538 -6.18204021140431,-2.7252760021863582 c-1.6764854810587964,-1.0687356871319054 -3.091020105702155,-2.458092080403382 -4.295994045213164,-4.114632395457836 c-1.2049739395110095,-1.7099770994110488 -2.409947879022019,-3.6871381206050744 -3.562531647249941,-6.091793416651861 c-1.152583768227922,-2.3512185116901922 -2.462338050305106,-5.18336808258974 -3.929262846231553,-8.443011928342052 l-50.34695460304696,-110.24008612765604 l67.42615044133345,-78.92613049469121 c4.505554730345514,-5.343678435659527 8.801548775558679,-9.992678674683315 12.783201793073319,-13.89356393271477 c3.981653017514641,-3.8474484736748593 8.853938946841765,-6.6795980445744085 14.616857787981376,-8.443011928342052 l19.855874916290116,-5.984919847938669 l0.9430230830955727,-9.565184399830551 c-6.234430382687397,0.2671839217829766 -12.783201793073319,0.42749427485276287 -19.646314231157767,0.5878046279225478 C357.4905569367248,174.16391132773595 350.3131034709419,174.27078489644913 342.82130897746026,174.27078489644913 z" id="svg_3" class="selected"/>
    <path fill="#fff" d="m429.1 122.3c1.6 1.6 3.1 3.5 4.6 5.7h-81.7v-81.73c2.2 1.52 4.1 3.08 5.7 4.64l71.4 71.39z" id="svg_4"/>
</svg>
