<?xml version="1.0" encoding="utf-8"?>
<!-- Svg Vector Icons : http://www.onlinewebfonts.com/icon -->
<!DOCTYPE svg PUBLIC "-//W3C//DTD SVG 1.1//EN" "http://www.w3.org/Graphics/SVG/1.1/DTD/svg11.dtd">
<svg version="1.1" xmlns="http://www.w3.org/2000/svg" xmlns:xlink="http://www.w3.org/1999/xlink" x="0px" y="0px" viewBox="0 0 1000 1000" enable-background="new 0 0 1000 1000" xml:space="preserve">
<metadata> Svg Vector Icons : http://www.onlinewebfonts.com/icon </metadata>
<g><path fill="#2DA442" d="M685.4,344.2c-14.7,0-29.1-0.1-43-0.3c-13.9-0.2-27.7-0.6-41.2-1.1l-2.5,18.9l29.1,8.4c7.7,2.1,11.6,5.8,11.6,11.2c0,1.9-0.2,3.7-0.7,5.6c-0.5,1.9-1.5,4.2-3.2,7c-1.6,2.8-4,6.2-7,10.2c-3,4-7,8.9-11.9,14.7l-90.5,106l-46.3-98.9c-8.4-17.8-12.7-30.5-12.7-38.2c0-9.1,5.7-15.2,17.2-18.3l30.2-8.8l1.8-17.9c-19.6,0.5-38.5,0.8-56.5,1.1c-18,0.2-36.1,0.3-54.4,0.3c-20.3,0-39.4-0.1-57.2-0.3c-17.8-0.2-34.6-0.6-50.5-1.1l-2.8,17.9l33,9.5c4.2,1.2,7.8,2.8,10.9,4.7c3,2,5.8,4.4,8.2,7.2c2.5,2.8,4.7,6.1,6.7,9.8c2,3.7,4,8,6.1,12.7l88.4,189.8L296.3,768.7c-8.2,9.6-16,17.5-23.3,23.9c-7.4,6.3-15.8,10.9-25.4,13.7L210,817.1l-1.8,17.9c26-0.7,51.8-1.1,77.5-1.1c29,0,57,0.3,84.2,1.1l2.8-18.6l-27-8.1c-8.9-2.6-13.3-6.7-13.3-12.3c0-1.9,0.3-3.8,0.9-5.8c0.6-2,1.8-4.4,3.5-7.2c1.7-2.8,4-6.1,6.8-9.8c2.8-3.7,6.5-8.3,11.2-13.7l110.1-129.1l56.5,121.4c8.4,18,12.7,30.4,12.7,37.2c0,10.1-5,16.5-15.1,19.3l-31.6,8.8l-2.1,17.9c42.8-0.7,82.5-1.1,118.9-1.1c35.3,0,68.6,0.3,100,1.1l2.8-17.9l-33.3-9.5c-4.7-1.4-8.6-3.1-11.8-5.1c-3.2-2-5.9-4.6-8.2-7.7c-2.3-3.2-4.6-6.9-6.8-11.4c-2.2-4.4-4.7-9.7-7.5-15.8l-96.1-206.3l128.7-147.7c8.6-10,16.8-18.7,24.4-26c7.6-7.2,16.9-12.5,27.9-15.8l37.9-11.2l1.8-17.9c-11.9,0.5-24.4,0.8-37.5,1.1C713.4,344,699.7,344.2,685.4,344.2z"/><path fill="#2DA442" d="M874.5,200.8L874.5,200.8L737.9,64.1C708.1,34.4,649.3,10,607.2,10H147.8c-42.1,0-76.6,34.5-76.6,76.6v826.8c0,42.1,34.5,76.6,76.6,76.6h704.4c42.1,0,76.6-34.5,76.6-76.6V331.6C928.7,289.4,904.3,230.6,874.5,200.8z M683.7,98.6c4.2,2.9,7.8,5.9,10.8,8.9l136.7,136.7c3,3,6,6.7,8.8,10.9H683.7V98.6z M852.2,928.7H147.8c-8.3,0-15.3-7-15.3-15.3V86.6c0-8.3,7-15.3,15.3-15.3h459.4c4.6,0,9.8,0.6,15.3,1.6v243.4h243.4c1,5.5,1.6,10.7,1.6,15.3v581.9C867.5,921.7,860.5,928.7,852.2,928.7z"/></g>
</svg>