<?xml version="1.0" encoding="UTF-8"?>
<svg width="1280px" height="900px" viewBox="0 0 1280 900" version="1.1" xmlns="http://www.w3.org/2000/svg" xmlns:xlink="http://www.w3.org/1999/xlink">
    <!-- Generator: sketchtool 57.1 (101010) - https://sketch.com -->
    <title>0760E083-2FD5-4C3F-BB58-4E5A92003A3D</title>
    <desc>Created with sketchtool.</desc>
    <g id="🖥-Web-Desktop-Ui" stroke="none" stroke-width="1" fill="none" fill-rule="evenodd">
        <g id="Log-in" fill-rule="nonzero">
            <g id="Recurso-5mdpi" transform="translate(-110.000000, -413.000000)">
                <path d="M992.919493,1139.58545 C862.876132,1311.31275 660.359186,1412.73234 445,1413.9811 C537.596683,1454.33174 637.529833,1475.10562 738.530735,1475 C1145.25952,1475 1475,1145.14499 1475,738.275424 C1475,673.686477 1466.5209,609.377201 1449.76911,547 C1435.58525,825.590881 1248.02426,1058.34115 992.919493,1139.58545 Z" id="Path" fill="#5FCA35"></path>
                <path d="M1015,330.437941 C1092.69531,444.999651 1134.09862,580.199867 1133.8428,718.512558 C1133.8428,720.353067 1133.8428,722.159492 1133.8428,724 C1231.05608,703.549906 1315.45565,667.830408 1377.98651,584.666693 C1399.75594,555.277932 1418.20556,523.581371 1433,490.153175 C1430.19807,482.313972 1427.22529,474.57702 1424.15,466.874151 C1321.77708,372.633301 1167.36344,319.39489 1015,330.437941 Z" id="Path" fill="#BFE343"></path>
                <path d="M1377.64284,583.855805 C1315.09507,667.320703 1230.67269,703.06694 1133.43313,723.693716 C1132.50992,873.811585 1082.87349,1019.56471 992,1139 C1247.72806,1057.5191 1435.74731,824.091043 1450,544.688875 C1444.94149,525.806652 1439.17662,507.243694 1432.70537,489 C1417.89615,522.550807 1399.43004,554.36222 1377.64284,583.855805 Z" id="Path" fill="#6BAB37"></path>
                <path d="M377,1171 C377,1171 554.140102,1171 652,1156.0631 C563.134401,1136.99385 479.241045,1099.85451 405.639418,1047 C381.071793,1103.39443 377,1151.28735 377,1171 Z" id="Path" fill="#6CA53A"></path>
                <path d="M192.496277,241 C-77.0188084,536.482543 -61.7020101,993.273401 227,1270 C194.098722,1166.5198 174.869374,1050.34348 182.677035,926.795224 C184.699792,886.262301 191.743077,846.137693 203.645207,807.342488 C114.722959,629.923326 110.625644,421.788224 192.496277,241 L192.496277,241 Z" id="Path" fill="#83B46A"></path>
                <path d="M993,1138.92451 C883.04954,1173.8326 765.850554,1179.3219 653.110415,1154.84407 C555.472386,1169.87731 378.733898,1169.87731 378.733898,1169.87731 C378.733898,1150.03752 382.79646,1101.69933 407.444941,1045.07752 C321.738283,983.080631 252.202801,901.430185 204.692405,807 C192.774711,845.749326 185.722216,885.826482 183.696815,926.31147 C175.981362,1049.71362 195.235855,1165.75255 228.077737,1269.11037 C291.058398,1329.46091 364.259949,1378.17867 444.281106,1413 C659.920605,1411.82418 862.734118,1310.52237 993,1138.92451 Z" id="Path" fill="#C0E444"></path>
                <path d="M738.494209,0 C530.826264,-0.0441419547 332.74,87.2336208 192.797184,240.436779 C110.685268,421.286481 114.757814,629.489631 203.87941,807 C283.575666,559.596059 562.854607,620.456609 842.304569,341.529499 C875.311816,308.571906 899.42592,263.934006 917.109595,214.343928 C937.632236,157.103591 949.261733,93.1692761 956,32.6502559 C885.538043,10.9814985 812.222343,-0.024063533 738.494209,0 Z" id="Path" fill="#C2E372"></path>
                <path d="M407,1045.85733 C479.252689,1098.28545 561.134517,1134.37677 652.850359,1155.90853 C698.783375,1166.29657 745.759039,1171.35398 792.848481,1170.98076 C860.678725,1171.01672 928.106215,1160.54855 992.738481,1139.94769 C1083.51144,1020.61122 1133.08751,874.984333 1134,725 C1003.73346,752.649508 850.350148,753.196346 695.259546,804.940914 C522.003335,862.73488 442.819032,963.387293 407,1045.85733 Z" id="Path" fill="#96D13A"></path>
            </g>
        </g>
    </g>
</svg>