<?xml version="1.0" standalone="no"?>
<!DOCTYPE svg PUBLIC "-//W3C//DTD SVG 20010904//EN"
 "http://www.w3.org/TR/2001/REC-SVG-20010904/DTD/svg10.dtd">
<svg version="1.0" xmlns="http://www.w3.org/2000/svg"
 width="981.000000pt" height="904.000000pt" viewBox="0 0 981.000000 904.000000"
 preserveAspectRatio="xMidYMid meet">
<metadata>
Created by potrace 1.15, written by Peter Selinger 2001-2017
</metadata>
<g transform="translate(0.000000,904.000000) scale(0.100000,-0.100000)"
fill="#666666" stroke="none">
<path d="M8366 9010 c-102 -26 -232 -87 -315 -149 -36 -28 -155 -139 -263
-248 l-198 -198 784 -784 c431 -431 789 -782 795 -780 18 7 460 451 497 500
49 67 102 184 119 264 50 239 -38 525 -250 810 -78 104 -376 393 -467 453 -82
53 -189 101 -284 128 -95 27 -320 29 -418 4z"/>
<path d="M295 8836 c-142 -45 -243 -150 -279 -291 -14 -53 -16 -482 -16 -4115
0 -3633 2 -4062 16 -4115 30 -119 107 -210 222 -267 l67 -33 3905 0 3905 0 65
32 c118 58 208 173 230 296 6 32 9 752 8 1933 l-3 1880 -410 -393 -410 -392
-5 -1178 -5 -1178 -22 -41 c-25 -48 -81 -100 -132 -123 -33 -15 -302 -16
-3221 -16 -2919 0 -3188 1 -3221 16 -56 26 -110 79 -135 134 l-24 50 0 3395 0
3395 24 50 c25 55 79 108 135 134 33 15 228 16 2168 21 l2132 5 401 408 402
407 -2879 -1 c-2295 0 -2886 -3 -2918 -13z"/>
<path d="M4994 5818 c-1537 -1538 -1991 -1999 -2026 -2053 -58 -89 -147 -267
-197 -392 -98 -249 -334 -1057 -382 -1306 -57 -300 16 -447 220 -447 211 1
780 165 1480 427 255 96 393 166 530 269 25 19 920 909 1988 1977 l1943 1942
-782 782 c-431 431 -785 783 -788 783 -3 0 -897 -892 -1986 -1982z"/>
</g>
</svg>
